# xmcd
#
# Track frame offsets: 
#        150
#        12430
#        26322
#        44455
#        57152
#        69690
#        81580
#        93532
#        111715
#        122832
#        144650
#
# Disc length: 2102 seconds
#
# Revision: 6
# Processed by: cddbd v1.5.2PL0 Copyright (c) Steve Scherf et al.
# Submitted via: ExactAudioCopyFreeDBPlugin 1.0
#
DISCID=a208340b
DTITLE=Booker T. and the M.G.'s - Doin' Our Thing {2012,RE,EU,OAS,Rhino 
DTITLE=Records,8122797254-5}
DYEAR=1968
DGENRE=Soul
TTITLE0=I Can Dig It
TTITLE1=Expressway (To Your Heart)
TTITLE2=Doin' Our Thing
TTITLE3=You Don't Love Me
TTITLE4=Never My Love
TTITLE5=The Exodus Song
TTITLE6=The Beat Goes On
TTITLE7=Ode to Billie Joe
TTITLE8=Blue on Green
TTITLE9=You Keep Me Hanging On
TTITLE10=Let's Go Get Stoned
EXTD=
EXTT0=
EXTT1=
EXTT2=
EXTT3=
EXTT4=
EXTT5=
EXTT6=
EXTT7=
EXTT8=
EXTT9=
EXTT10=
PLAYORDER=
